<mxfile host="app.diagrams.net" agent="Mozilla/5.0 (Macintosh; Intel Mac OS X 10_15_7) AppleWebKit/537.36 (KHTML, like Gecko) Chrome/139.0.0.0 Safari/537.36" version="28.2.0">
  <diagram name="Scoreboard System Architecture" id="scoreboard-architecture">
    <mxGraphModel dx="1451" dy="2032" grid="1" gridSize="10" guides="1" tooltips="1" connect="1" arrows="1" fold="1" page="1" pageScale="1" pageWidth="1654" pageHeight="1169" math="0" shadow="0">
      <root>
        <mxCell id="0" />
        <mxCell id="1" parent="0" />
        <mxCell id="title" value="Scoreboard System - Microservice Architecture" style="text;html=1;strokeColor=none;fillColor=none;align=center;verticalAlign=middle;whiteSpace=wrap;rounded=0;fontSize=20;fontStyle=1;" parent="1" vertex="1">
          <mxGeometry x="140" y="-40" width="400" height="30" as="geometry" />
        </mxCell>
        <mxCell id="az1-bg" value="Availability Zone 1 (us-east-1a)" style="rounded=1;whiteSpace=wrap;html=1;fillColor=#E6F3FF;strokeColor=#1A73E8;fontSize=14;fontStyle=1;verticalAlign=top;align=left;" parent="1" vertex="1">
          <mxGeometry x="40" y="100" width="520" height="900" as="geometry" />
        </mxCell>
        <mxCell id="az2-bg" value="Availability Zone 2 (us-east-1b)" style="rounded=1;whiteSpace=wrap;html=1;fillColor=#F0F8E6;strokeColor=#34A853;fontSize=14;fontStyle=1;verticalAlign=top;align=left;" parent="1" vertex="1">
          <mxGeometry x="580" y="100" width="520" height="900" as="geometry" />
        </mxCell>
        <mxCell id="az3-bg" value="Availability Zone 3 (us-east-1c)" style="rounded=1;whiteSpace=wrap;html=1;fillColor=#FFF3E0;strokeColor=#FF9800;fontSize=14;fontStyle=1;verticalAlign=top;align=left;" parent="1" vertex="1">
          <mxGeometry x="1120" y="100" width="520" height="900" as="geometry" />
        </mxCell>
        <mxCell id="users" value="Users" style="shape=mxgraph.network.users;fillColor=#d5e8d4;strokeColor=#82b366;fontSize=12;" parent="1" vertex="1">
          <mxGeometry x="777" y="-50" width="100" height="60" as="geometry" />
        </mxCell>
        <mxCell id="cdn" value="CDN&#xa;(CloudFront)" style="ellipse;whiteSpace=wrap;html=1;fillColor=#fff2cc;strokeColor=#d6b656;fontSize=12;fontStyle=1;" parent="1" vertex="1">
          <mxGeometry x="770" y="120" width="120" height="60" as="geometry" />
        </mxCell>
        <mxCell id="api-gateway" value="API Gateway&#xa;(Load Balancer)" style="rounded=1;whiteSpace=wrap;html=1;fillColor=#dae8fc;strokeColor=#6c8ebf;fontSize=12;fontStyle=1;" parent="1" vertex="1">
          <mxGeometry x="770" y="230" width="120" height="60" as="geometry" />
        </mxCell>
        <mxCell id="score-service-az1" value="Score Service&#xa;(Primary)" style="rounded=1;whiteSpace=wrap;html=1;fillColor=#f8cecc;strokeColor=#b85450;fontSize=11;" parent="1" vertex="1">
          <mxGeometry x="100" y="330" width="100" height="60" as="geometry" />
        </mxCell>
        <mxCell id="user-service-az1" value="User Service&#xa;(Primary)" style="rounded=1;whiteSpace=wrap;html=1;fillColor=#f8cecc;strokeColor=#b85450;fontSize=11;" parent="1" vertex="1">
          <mxGeometry x="230" y="330" width="100" height="60" as="geometry" />
        </mxCell>
        <mxCell id="notification-service-az1" value="Notification Service&#xa;(Primary)" style="rounded=1;whiteSpace=wrap;html=1;fillColor=#f8cecc;strokeColor=#b85450;fontSize=11;" parent="1" vertex="1">
          <mxGeometry x="350" y="330" width="100" height="60" as="geometry" />
        </mxCell>
        <mxCell id="score-service-az2" value="Score Service&#xa;(Replica)" style="rounded=1;whiteSpace=wrap;html=1;fillColor=#e1d5e7;strokeColor=#9673a6;fontSize=11;" parent="1" vertex="1">
          <mxGeometry x="650" y="330" width="100" height="60" as="geometry" />
        </mxCell>
        <mxCell id="user-service-az2" value="User Service&#xa;(Replica)" style="rounded=1;whiteSpace=wrap;html=1;fillColor=#e1d5e7;strokeColor=#9673a6;fontSize=11;" parent="1" vertex="1">
          <mxGeometry x="770" y="330" width="100" height="60" as="geometry" />
        </mxCell>
        <mxCell id="notification-service-az2" value="Notification Service&#xa;(Replica)" style="rounded=1;whiteSpace=wrap;html=1;fillColor=#e1d5e7;strokeColor=#9673a6;fontSize=11;" parent="1" vertex="1">
          <mxGeometry x="890" y="330" width="100" height="60" as="geometry" />
        </mxCell>
        <mxCell id="score-service-az3" value="Score Service&#xa;(Replica)" style="rounded=1;whiteSpace=wrap;html=1;fillColor=#fff2cc;strokeColor=#d6b656;fontSize=11;" parent="1" vertex="1">
          <mxGeometry x="1190" y="330" width="100" height="60" as="geometry" />
        </mxCell>
        <mxCell id="user-service-az3" value="User Service&#xa;(Replica)" style="rounded=1;whiteSpace=wrap;html=1;fillColor=#fff2cc;strokeColor=#d6b656;fontSize=11;" parent="1" vertex="1">
          <mxGeometry x="1310" y="330" width="100" height="60" as="geometry" />
        </mxCell>
        <mxCell id="notification-service-az3" value="Notification Service&#xa;(Replica)" style="rounded=1;whiteSpace=wrap;html=1;fillColor=#fff2cc;strokeColor=#d6b656;fontSize=11;" parent="1" vertex="1">
          <mxGeometry x="1430" y="330" width="100" height="60" as="geometry" />
        </mxCell>
        <mxCell id="kafka-cluster" value="Event Bus&#xa;(Kafka Cluster)" style="ellipse;whiteSpace=wrap;html=1;fillColor=#ffd966;strokeColor=#d6b656;fontSize=12;fontStyle=1;" parent="1" vertex="1">
          <mxGeometry x="750" y="450" width="160" height="80" as="geometry" />
        </mxCell>
        <mxCell id="redis-cluster" value="Redis Cluster&#xa;(Cache Layer)" style="ellipse;whiteSpace=wrap;html=1;fillColor=#ffe6cc;strokeColor=#d79b00;fontSize=12;fontStyle=1;" parent="1" vertex="1">
          <mxGeometry x="750" y="570" width="160" height="80" as="geometry" />
        </mxCell>
        <mxCell id="db-primary" value="PostgreSQL&#xa;Primary DB&#xa;(Shard Master)" style="shape=cylinder3;whiteSpace=wrap;html=1;boundedLbl=1;backgroundOutline=1;size=15;fillColor=#f8cecc;strokeColor=#b85450;fontSize=11;" parent="1" vertex="1">
          <mxGeometry x="100" y="720" width="100" height="80" as="geometry" />
        </mxCell>
        <mxCell id="db-shard1" value="DB Shard 1&#xa;(Users 0-24%)" style="shape=cylinder3;whiteSpace=wrap;html=1;boundedLbl=1;backgroundOutline=1;size=15;fillColor=#d5e8d4;strokeColor=#82b366;fontSize=10;" parent="1" vertex="1">
          <mxGeometry x="250" y="720" width="80" height="70" as="geometry" />
        </mxCell>
        <mxCell id="db-shard2" value="DB Shard 2&#xa;(Users 25-49%)" style="shape=cylinder3;whiteSpace=wrap;html=1;boundedLbl=1;backgroundOutline=1;size=15;fillColor=#d5e8d4;strokeColor=#82b366;fontSize=10;" parent="1" vertex="1">
          <mxGeometry x="350" y="720" width="80" height="70" as="geometry" />
        </mxCell>
        <mxCell id="db-shard3" value="DB Shard 3&#xa;(Users 50-74%)" style="shape=cylinder3;whiteSpace=wrap;html=1;boundedLbl=1;backgroundOutline=1;size=15;fillColor=#d5e8d4;strokeColor=#82b366;fontSize=10;" parent="1" vertex="1">
          <mxGeometry x="450" y="720" width="80" height="70" as="geometry" />
        </mxCell>
        <mxCell id="db-shard4" value="DB Shard 4&#xa;(Users 75-100%)" style="shape=cylinder3;whiteSpace=wrap;html=1;boundedLbl=1;backgroundOutline=1;size=15;fillColor=#d5e8d4;strokeColor=#82b366;fontSize=10;" parent="1" vertex="1">
          <mxGeometry x="550" y="720" width="80" height="70" as="geometry" />
        </mxCell>
        <mxCell id="db-replica-az2" value="Read Replica&#xa;(AZ2)" style="shape=cylinder3;whiteSpace=wrap;html=1;boundedLbl=1;backgroundOutline=1;size=15;fillColor=#e1d5e7;strokeColor=#9673a6;fontSize=11;" parent="1" vertex="1">
          <mxGeometry x="750" y="720" width="100" height="80" as="geometry" />
        </mxCell>
        <mxCell id="db-replica-az3" value="Read Replica&#xa;(AZ3)" style="shape=cylinder3;whiteSpace=wrap;html=1;boundedLbl=1;backgroundOutline=1;size=15;fillColor=#fff2cc;strokeColor=#d6b656;fontSize=11;" parent="1" vertex="1">
          <mxGeometry x="1300" y="720" width="100" height="80" as="geometry" />
        </mxCell>
        <mxCell id="websocket-connections" value="WebSocket&#xa;Connection Pool" style="cloud;whiteSpace=wrap;html=1;fillColor=#d5e8d4;strokeColor=#82b366;fontSize=12;" parent="1" vertex="1">
          <mxGeometry x="1230" y="450" width="120" height="80" as="geometry" />
        </mxCell>
        <mxCell id="monitoring" value="Monitoring&#xa;(Prometheus/Grafana)" style="rounded=1;whiteSpace=wrap;html=1;fillColor=#f5f5f5;strokeColor=#666666;fontSize=11;fontStyle=1;" parent="1" vertex="1">
          <mxGeometry x="80" y="860" width="120" height="60" as="geometry" />
        </mxCell>
        <mxCell id="logging" value="Logging&#xa;(ELK Stack)" style="rounded=1;whiteSpace=wrap;html=1;fillColor=#f5f5f5;strokeColor=#666666;fontSize=11;fontStyle=1;" parent="1" vertex="1">
          <mxGeometry x="220" y="860" width="120" height="60" as="geometry" />
        </mxCell>
        <mxCell id="tracing" value="Distributed Tracing&#xa;(Jaeger)" style="rounded=1;whiteSpace=wrap;html=1;fillColor=#f5f5f5;strokeColor=#666666;fontSize=11;fontStyle=1;" parent="1" vertex="1">
          <mxGeometry x="360" y="860" width="120" height="60" as="geometry" />
        </mxCell>
        <mxCell id="security" value="Security Layer" style="text;html=1;strokeColor=#b85450;fillColor=#f8cecc;align=center;verticalAlign=middle;whiteSpace=wrap;rounded=1;fontSize=12;fontStyle=1;" parent="1" vertex="1">
          <mxGeometry x="1190" y="570" width="120" height="30" as="geometry" />
        </mxCell>
        <mxCell id="auth" value="JWT Auth" style="rounded=1;whiteSpace=wrap;html=1;fillColor=#ffe6cc;strokeColor=#d79b00;fontSize=10;" parent="1" vertex="1">
          <mxGeometry x="1190" y="610" width="80" height="30" as="geometry" />
        </mxCell>
        <mxCell id="rate-limit" value="Rate Limiting" style="rounded=1;whiteSpace=wrap;html=1;fillColor=#ffe6cc;strokeColor=#d79b00;fontSize=10;" parent="1" vertex="1">
          <mxGeometry x="1280" y="610" width="80" height="30" as="geometry" />
        </mxCell>
        <mxCell id="audit" value="Audit Logs" style="rounded=1;whiteSpace=wrap;html=1;fillColor=#ffe6cc;strokeColor=#d79b00;fontSize=10;" parent="1" vertex="1">
          <mxGeometry x="1190" y="650" width="80" height="30" as="geometry" />
        </mxCell>
        <mxCell id="encryption" value="Encryption" style="rounded=1;whiteSpace=wrap;html=1;fillColor=#ffe6cc;strokeColor=#d79b00;fontSize=10;" parent="1" vertex="1">
          <mxGeometry x="1280" y="650" width="80" height="30" as="geometry" />
        </mxCell>
        <mxCell id="arrow1" style="edgeStyle=orthogonalEdgeStyle;rounded=0;orthogonalLoop=1;jettySize=auto;html=1;strokeWidth=2;strokeColor=#2E7D32;fontColor=#000000;" parent="1" source="users" target="cdn" edge="1">
          <mxGeometry relative="1" as="geometry">
            <Array as="points">
              <mxPoint x="830" y="30" />
              <mxPoint x="830" y="30" />
            </Array>
          </mxGeometry>
        </mxCell>
        <mxCell id="arrow2" style="edgeStyle=orthogonalEdgeStyle;rounded=0;orthogonalLoop=1;jettySize=auto;html=1;strokeWidth=2;strokeColor=#2E7D32;" parent="1" source="cdn" target="api-gateway" edge="1">
          <mxGeometry relative="1" as="geometry" />
        </mxCell>
        <mxCell id="arrow3" style="edgeStyle=orthogonalEdgeStyle;rounded=0;orthogonalLoop=1;jettySize=auto;html=1;strokeWidth=2;strokeColor=#1976D2;" parent="1" target="score-service-az1" edge="1">
          <mxGeometry relative="1" as="geometry">
            <mxPoint x="770" y="259.99999999999955" as="sourcePoint" />
          </mxGeometry>
        </mxCell>
        <mxCell id="arrow4" style="edgeStyle=orthogonalEdgeStyle;rounded=0;orthogonalLoop=1;jettySize=auto;html=1;strokeWidth=2;strokeColor=#1976D2;" parent="1" target="score-service-az2" edge="1">
          <mxGeometry relative="1" as="geometry">
            <mxPoint x="770" y="259.99999999999955" as="sourcePoint" />
          </mxGeometry>
        </mxCell>
        <mxCell id="arrow5" style="edgeStyle=orthogonalEdgeStyle;rounded=0;orthogonalLoop=1;jettySize=auto;html=1;strokeWidth=2;strokeColor=#1976D2;" parent="1" target="score-service-az3" edge="1">
          <mxGeometry relative="1" as="geometry">
            <mxPoint x="890" y="259.99999999999955" as="sourcePoint" />
          </mxGeometry>
        </mxCell>
        <mxCell id="arrow8" style="edgeStyle=orthogonalEdgeStyle;rounded=0;orthogonalLoop=1;jettySize=auto;html=1;strokeWidth=2;strokeColor=#F57C00;" parent="1" source="kafka-cluster" target="websocket-connections" edge="1">
          <mxGeometry relative="1" as="geometry" />
        </mxCell>
        <mxCell id="arrow9" style="edgeStyle=orthogonalEdgeStyle;rounded=0;orthogonalLoop=1;jettySize=auto;html=1;strokeWidth=1;strokeColor=#D84315;dashed=1;" parent="1" source="score-service-az1" target="redis-cluster" edge="1">
          <mxGeometry relative="1" as="geometry">
            <Array as="points">
              <mxPoint x="160" y="610" />
            </Array>
          </mxGeometry>
        </mxCell>
        <mxCell id="arrow10" style="edgeStyle=orthogonalEdgeStyle;rounded=0;orthogonalLoop=1;jettySize=auto;html=1;strokeWidth=2;strokeColor=#C62828;entryX=0.5;entryY=0;entryDx=0;entryDy=0;entryPerimeter=0;" parent="1" source="score-service-az1" target="db-primary" edge="1">
          <mxGeometry relative="1" as="geometry">
            <mxPoint x="180.090909090909" y="730" as="targetPoint" />
            <Array as="points">
              <mxPoint x="150" y="500" />
              <mxPoint x="150" y="500" />
            </Array>
          </mxGeometry>
        </mxCell>
        <mxCell id="arrow11" style="edgeStyle=orthogonalEdgeStyle;rounded=0;orthogonalLoop=1;jettySize=auto;html=1;strokeWidth=1;strokeColor=#C62828;dashed=1;" parent="1" source="db-primary" target="db-replica-az2" edge="1">
          <mxGeometry relative="1" as="geometry" />
        </mxCell>
        <mxCell id="arrow12" style="edgeStyle=orthogonalEdgeStyle;rounded=0;orthogonalLoop=1;jettySize=auto;html=1;strokeWidth=1;strokeColor=#C62828;dashed=1;" parent="1" source="db-primary" target="db-replica-az3" edge="1">
          <mxGeometry relative="1" as="geometry" />
        </mxCell>
        <mxCell id="arrow13" style="edgeStyle=orthogonalEdgeStyle;rounded=0;orthogonalLoop=1;jettySize=auto;html=1;strokeWidth=1;strokeColor=#388E3C;" parent="1" source="db-primary" target="db-shard1" edge="1">
          <mxGeometry relative="1" as="geometry" />
        </mxCell>
        <mxCell id="arrow14" style="edgeStyle=orthogonalEdgeStyle;rounded=0;orthogonalLoop=1;jettySize=auto;html=1;strokeWidth=1;strokeColor=#388E3C;" parent="1" source="db-primary" target="db-shard2" edge="1">
          <mxGeometry relative="1" as="geometry" />
        </mxCell>
        <mxCell id="arrow15" style="edgeStyle=orthogonalEdgeStyle;rounded=0;orthogonalLoop=1;jettySize=auto;html=1;strokeWidth=1;strokeColor=#388E3C;" parent="1" source="db-primary" target="db-shard3" edge="1">
          <mxGeometry relative="1" as="geometry" />
        </mxCell>
        <mxCell id="legend-bg" value="" style="rounded=1;whiteSpace=wrap;html=1;fillColor=#f5f5f5;strokeColor=#666666;" parent="1" vertex="1">
          <mxGeometry x="1400" y="850" width="200" height="140" as="geometry" />
        </mxCell>
        <mxCell id="legend-title" value="Legend" style="text;html=1;strokeColor=none;fillColor=none;align=center;verticalAlign=middle;whiteSpace=wrap;rounded=0;fontSize=14;fontStyle=1;" parent="1" vertex="1">
          <mxGeometry x="1450" y="870" width="100" height="20" as="geometry" />
        </mxCell>
        <mxCell id="legend1" value="Primary Services" style="rounded=1;whiteSpace=wrap;html=1;fillColor=#f8cecc;strokeColor=#b85450;fontSize=10;" parent="1" vertex="1">
          <mxGeometry x="1410" y="900" width="80" height="20" as="geometry" />
        </mxCell>
        <mxCell id="legend2" value="Replica Services" style="rounded=1;whiteSpace=wrap;html=1;fillColor=#e1d5e7;strokeColor=#9673a6;fontSize=10;" parent="1" vertex="1">
          <mxGeometry x="1500" y="900" width="80" height="20" as="geometry" />
        </mxCell>
        <mxCell id="legend3" value="Data Flow" style="text;html=1;strokeColor=none;fillColor=none;align=left;verticalAlign=middle;whiteSpace=wrap;rounded=0;fontSize=10;" parent="1" vertex="1">
          <mxGeometry x="1430" y="930" width="60" height="15" as="geometry" />
        </mxCell>
        <mxCell id="legend4" value="Cache Access" style="text;html=1;strokeColor=none;fillColor=none;align=left;verticalAlign=middle;whiteSpace=wrap;rounded=0;fontSize=10;" parent="1" vertex="1">
          <mxGeometry x="1430" y="950" width="80" height="15" as="geometry" />
        </mxCell>
        <mxCell id="legend5" value="Replication" style="text;html=1;strokeColor=none;fillColor=none;align=left;verticalAlign=middle;whiteSpace=wrap;rounded=0;fontSize=10;" parent="1" vertex="1">
          <mxGeometry x="1430" y="970" width="80" height="15" as="geometry" />
        </mxCell>
        <mxCell id="legend-line1" value="" style="endArrow=classic;html=1;strokeWidth=2;strokeColor=#1976D2;" parent="1" edge="1">
          <mxGeometry width="50" height="50" relative="1" as="geometry">
            <mxPoint x="1410" y="938" as="sourcePoint" />
            <mxPoint x="1425" y="938" as="targetPoint" />
          </mxGeometry>
        </mxCell>
        <mxCell id="legend-line2" value="" style="endArrow=classic;html=1;strokeWidth=1;strokeColor=#D84315;dashed=1;" parent="1" edge="1">
          <mxGeometry width="50" height="50" relative="1" as="geometry">
            <mxPoint x="1410" y="958" as="sourcePoint" />
            <mxPoint x="1425" y="958" as="targetPoint" />
          </mxGeometry>
        </mxCell>
        <mxCell id="legend-line3" value="" style="endArrow=classic;html=1;strokeWidth=1;strokeColor=#C62828;dashed=1;" parent="1" edge="1">
          <mxGeometry width="50" height="50" relative="1" as="geometry">
            <mxPoint x="1410" y="978" as="sourcePoint" />
            <mxPoint x="1425" y="978" as="targetPoint" />
          </mxGeometry>
        </mxCell>
      </root>
    </mxGraphModel>
  </diagram>
</mxfile>
